<svg width="303" height="98" viewBox="0 0 303 98" fill="none" xmlns="http://www.w3.org/2000/svg">
<path d="M26.304 92.808C19.84 92.808 14.464 90.376 10.176 85.512C5.952 80.584 3.84 74.6 3.84 67.56V50.76C3.84 49.224 3.872 48.104 3.936 47.4C4.064 46.696 4.352 45.864 4.8 44.904C5.696 43.176 8.192 42.312 12.288 42.312C16.768 42.312 19.392 43.528 20.16 45.96C20.544 46.984 20.736 48.616 20.736 50.856V67.656C20.736 70.28 21.472 72.328 22.944 73.8C24.48 75.272 26.496 76.008 28.992 76.008C31.552 76.008 33.6 75.24 35.136 73.704C36.736 72.168 37.536 70.152 37.536 67.656V50.664C37.536 49.192 37.568 48.104 37.632 47.4C37.76 46.632 38.08 45.768 38.592 44.808C39.424 43.144 41.888 42.312 45.984 42.312C50.016 42.312 52.48 43.176 53.376 44.904C53.824 45.864 54.08 46.728 54.144 47.496C54.272 48.2 54.336 49.288 54.336 50.76V84.744C54.336 86.152 54.272 87.24 54.144 88.008C54.08 88.712 53.792 89.512 53.28 90.408C52.32 92.072 49.856 92.904 45.888 92.904C41.984 92.904 39.584 92.136 38.688 90.6C38.048 89.512 37.728 88.2 37.728 86.664C37.472 87.112 36.896 87.752 36 88.584C35.104 89.416 34.24 90.12 33.408 90.696C31.232 92.104 28.864 92.808 26.304 92.808ZM91.4348 59.4L85.1948 59.016V72.264C85.1948 73.992 85.4508 75.24 85.9628 76.008C86.5388 76.776 87.5628 77.16 89.0348 77.16C90.5708 77.16 91.7228 77.224 92.4908 77.352C93.3228 77.416 94.1868 77.704 95.0828 78.216C96.5548 79.048 97.2908 81.192 97.2908 84.648C97.2908 88.68 96.3948 91.144 94.6028 92.04C93.6428 92.488 92.7788 92.776 92.0108 92.904C91.3068 92.968 90.2508 93 88.8428 93C82.1868 93 77.1308 91.496 73.6748 88.488C70.2188 85.48 68.4908 80.392 68.4908 73.224V59.016C67.2748 59.208 65.9628 59.304 64.5547 59.304C63.1468 59.304 61.9628 58.76 61.0028 57.672C60.1068 56.584 59.6588 54.728 59.6588 52.104C59.6588 49.48 59.8188 47.592 60.1388 46.44C60.4588 45.224 60.9068 44.36 61.4828 43.848C62.5068 43.016 63.7868 42.6 65.3228 42.6L68.4908 42.984V33.096C68.4908 31.624 68.5228 30.536 68.5868 29.832C68.7148 29.128 69.0348 28.36 69.5468 27.528C70.3788 25.928 72.8428 25.128 76.9388 25.128C81.2908 25.128 83.8828 26.312 84.7148 28.68C85.0348 29.704 85.1948 31.336 85.1948 33.576V42.984C88.0108 42.728 90.1228 42.6 91.5308 42.6C93.0028 42.6 94.0908 42.664 94.7948 42.792C95.5628 42.856 96.4268 43.144 97.3868 43.656C99.0508 44.488 99.8828 46.952 99.8828 51.048C99.8828 55.08 99.0188 57.544 97.2908 58.44C96.3308 58.888 95.4668 59.176 94.6988 59.304C93.9948 59.368 92.9068 59.4 91.4348 59.4ZM138.016 47.784C138.4 44.2 140.928 42.408 145.6 42.408C148.096 42.408 149.952 42.6 151.168 42.984C152.384 43.368 153.216 44.04 153.664 45C154.176 45.96 154.464 46.824 154.528 47.592C154.656 48.296 154.72 49.384 154.72 50.856V84.456C154.72 85.928 154.656 87.048 154.528 87.816C154.464 88.52 154.208 89.352 153.76 90.312C152.864 91.976 150.656 92.808 147.136 92.808C143.68 92.808 141.344 92.392 140.128 91.56C138.976 90.664 138.304 89.384 138.112 87.72C135.744 91.112 131.776 92.808 126.208 92.808C120.704 92.808 115.584 90.28 110.848 85.224C106.112 80.168 103.744 74.312 103.744 67.656C103.744 60.936 106.112 55.08 110.848 50.088C115.648 45.032 120.896 42.504 126.592 42.504C128.768 42.504 130.752 42.888 132.544 43.656C134.336 44.424 135.584 45.16 136.288 45.864C136.992 46.504 137.568 47.144 138.016 47.784ZM120.544 67.752C120.544 69.864 121.376 71.784 123.04 73.512C124.704 75.176 126.72 76.008 129.088 76.008C131.456 76.008 133.408 75.144 134.944 73.416C136.544 71.688 137.344 69.8 137.344 67.752C137.344 65.64 136.576 63.688 135.04 61.896C133.568 60.104 131.552 59.208 128.992 59.208C126.496 59.208 124.448 60.104 122.848 61.896C121.312 63.688 120.544 65.64 120.544 67.752ZM224.867 59.4L218.627 59.016V72.264C218.627 73.992 218.883 75.24 219.395 76.008C219.971 76.776 220.995 77.16 222.467 77.16C224.003 77.16 225.155 77.224 225.923 77.352C226.755 77.416 227.587 77.704 228.419 78.216C229.955 79.048 230.723 81.192 230.723 84.648C230.723 88.68 229.827 91.144 228.035 92.04C227.075 92.488 226.211 92.776 225.443 92.904C224.739 92.968 223.683 93 222.275 93C215.875 93 210.883 91.336 207.299 88.008C203.715 84.68 201.923 79.752 201.923 73.224V59.016C198.851 59.272 196.291 59.4 194.243 59.4L185.507 59.016V72.264C185.507 73.992 185.763 75.24 186.275 76.008C186.851 76.776 187.875 77.16 189.347 77.16C190.883 77.16 192.035 77.224 192.803 77.352C193.635 77.416 194.499 77.704 195.395 78.216C196.867 79.048 197.603 81.192 197.603 84.648C197.603 88.68 196.707 91.144 194.915 92.04C193.955 92.488 193.091 92.776 192.323 92.904C191.619 92.968 190.563 93 189.155 93C182.755 93 177.763 91.336 174.179 88.008C170.595 84.68 168.803 79.752 168.803 73.224V59.016C167.523 59.208 166.179 59.304 164.771 59.304C163.427 59.304 162.275 58.76 161.315 57.672C160.419 56.584 159.971 54.728 159.971 52.104C159.971 49.48 160.131 47.592 160.451 46.44C160.771 45.224 161.219 44.36 161.795 43.848C162.819 43.016 164.099 42.6 165.635 42.6L168.803 42.984V33.096C168.803 31.624 168.835 30.536 168.899 29.832C169.027 29.128 169.347 28.36 169.859 27.528C170.691 25.928 173.155 25.128 177.251 25.128C181.603 25.128 184.195 26.312 185.027 28.68C185.347 29.704 185.507 31.336 185.507 33.576V42.696C188.515 42.632 191.363 42.6 194.051 42.6L201.923 42.696V33.096C201.923 31.624 201.955 30.536 202.019 29.832C202.147 29.128 202.435 28.36 202.883 27.528C203.779 25.928 206.275 25.128 210.371 25.128C214.723 25.128 217.283 26.312 218.051 28.68C218.435 29.704 218.627 31.336 218.627 33.576V42.984C221.443 42.728 223.555 42.6 224.963 42.6C226.435 42.6 227.523 42.664 228.227 42.792C228.995 42.856 229.827 43.144 230.723 43.656C232.451 44.488 233.315 46.952 233.315 51.048C233.315 55.08 232.451 57.544 230.723 58.44C229.763 58.888 228.899 59.176 228.131 59.304C227.427 59.368 226.339 59.4 224.867 59.4ZM287.358 61.704C287.358 65.608 286.366 68.52 284.382 70.44C282.462 72.296 280.318 73.224 277.95 73.224H255.198C255.198 75.016 256.254 76.52 258.366 77.736C260.478 78.952 262.59 79.56 264.702 79.56C268.414 79.56 271.326 79.176 273.438 78.408L274.494 78.024C276.03 77.32 277.31 76.968 278.334 76.968C280.382 76.968 282.142 78.408 283.614 81.288C284.446 83.016 284.862 84.488 284.862 85.704C284.862 91.4 278.046 94.248 264.414 94.248C259.678 94.248 255.454 93.448 251.742 91.848C248.094 90.184 245.246 88.008 243.198 85.32C239.166 80.136 237.15 74.344 237.15 67.944C237.15 59.88 239.742 53.448 244.926 48.648C250.174 43.784 256.702 41.352 264.51 41.352C273.406 41.352 279.934 44.488 284.094 50.76C286.27 54.088 287.358 57.736 287.358 61.704ZM267.102 64.488C269.534 64.488 270.75 63.464 270.75 61.416C270.75 59.944 270.174 58.76 269.022 57.864C267.934 56.968 266.334 56.52 264.222 56.52C262.174 56.52 260.126 57.384 258.078 59.112C256.03 60.776 255.006 62.568 255.006 64.488H267.102Z" fill="#BAA2D5"/>
<path d="M117.466 27.88C117.391 28.9533 117.233 29.98 116.99 30.96C116.747 31.9307 116.393 32.8173 115.926 33.62C115.394 34.4973 114.699 35.258 113.84 35.902C112.981 36.546 111.95 36.9847 110.746 37.218L109.766 36.322C110.214 36.2193 110.681 36.0793 111.166 35.902C111.651 35.7153 112.123 35.4727 112.58 35.174C113.037 34.8847 113.467 34.5347 113.868 34.124C114.269 33.704 114.61 33.2047 114.89 32.626C115.17 32.066 115.413 31.4593 115.618 30.806C115.823 30.1527 115.931 29.588 115.94 29.112H108.926L109.248 32.108L107.946 32.304L107.442 27.88H111.67V26.634H113.14V27.88H117.466ZM130.072 27.292C130.044 27.992 129.904 28.818 129.652 29.77C129.4 30.722 128.994 31.674 128.434 32.626C127.883 33.5687 127.155 34.4507 126.25 35.272C125.345 36.084 124.229 36.7 122.904 37.12L121.84 36.238C122.876 35.8927 123.767 35.4447 124.514 34.894C125.27 34.3433 125.928 33.718 126.488 33.018L126.516 32.976C126.292 32.7147 125.961 32.444 125.522 32.164C125.083 31.884 124.575 31.6647 123.996 31.506L124.766 30.582C125.326 30.7127 125.825 30.8853 126.264 31.1C126.703 31.3147 127.057 31.5433 127.328 31.786C127.627 31.31 127.879 30.778 128.084 30.19C128.299 29.602 128.434 29.042 128.49 28.51H124.85C124.617 29.1913 124.248 29.8587 123.744 30.512C123.249 31.1653 122.624 31.716 121.868 32.164L120.846 31.52C121.761 30.8667 122.47 30.106 122.974 29.238C123.487 28.3607 123.8 27.4833 123.912 26.606L125.284 26.872L125.2 27.292H130.072ZM138.968 31.436L137.75 31.688C137.75 31.296 137.713 30.9367 137.638 30.61C137.573 30.274 137.428 29.9333 137.204 29.588L138.198 29.224C138.45 29.504 138.641 29.84 138.772 30.232C138.903 30.6147 138.968 31.016 138.968 31.436ZM136.672 31.898L135.524 32.36C135.487 31.968 135.393 31.604 135.244 31.268C135.104 30.932 134.889 30.6007 134.6 30.274L135.636 29.812C135.935 30.12 136.163 30.4467 136.322 30.792C136.481 31.1373 136.597 31.506 136.672 31.898ZM142.58 29.77C142.421 30.106 142.286 30.4233 142.174 30.722C142.071 31.0113 141.973 31.3007 141.88 31.59C141.777 31.87 141.679 32.1547 141.586 32.444C141.493 32.7333 141.385 33.032 141.264 33.34C140.937 34.18 140.457 34.9267 139.822 35.58C139.187 36.2333 138.315 36.7047 137.204 36.994L136.336 36.056C137.176 35.832 137.918 35.4867 138.562 35.02C139.215 34.5533 139.733 33.8393 140.116 32.878C140.209 32.6353 140.303 32.3787 140.396 32.108C140.499 31.828 140.601 31.534 140.704 31.226C140.807 30.9273 140.909 30.6193 141.012 30.302C141.115 29.9753 141.227 29.644 141.348 29.308L142.58 29.77ZM155.942 27.922H147.892V26.704H155.942V27.922ZM157.118 30.736H152.848C152.848 30.988 152.843 31.2913 152.834 31.646C152.825 31.9913 152.797 32.3553 152.75 32.738C152.703 33.1207 152.629 33.5127 152.526 33.914C152.423 34.3153 152.274 34.698 152.078 35.062C151.863 35.4447 151.565 35.8273 151.182 36.21C150.809 36.5927 150.342 36.882 149.782 37.078L148.746 36.182C149.343 35.9207 149.819 35.5987 150.174 35.216C150.529 34.8333 150.795 34.404 150.972 33.928C151.159 33.4613 151.275 32.9573 151.322 32.416C151.378 31.8747 151.406 31.3147 151.406 30.736H146.716V29.504H157.118V30.736Z" fill="#BAA2D5"/>
</svg>
